{"title":"The Other Woman 2014 DVDSCR XViD AC3-BL4CKP34RL","uid":10485447,"size":1596006400,"categoryP":"video","categoryS":"movies","magnet":"?xt=urn:btih:70128dd591b75eeeedddf76a7bf13530842667b3&amp;dn=The+Other+Woman+2014+DVDSCR+XViD+AC3-BL4CKP34RL&amp;tr=udp%3A%2F%2Ftracker.openbittorrent.com%3A80&amp;tr=udp%3A%2F%2Fopen.demonii.com%3A1337&amp;tr=udp%3A%2F%2Ftracker.coppersurfer.tk%3A6969&amp;tr=udp%3A%2F%2Fexodus.desync.com%3A6969","seeders":2,"leechers":0,"uploader":"HeroMaster","files":-1,"time":1404470555,"description":"::::::::::: BL4CKP34RL PRESENTS ::::::::::\n\n\n:::: The Other Woman 2014 DVDScr XViD AC3 ::::\n\n\n::Information::\n\n\nRipper: J4CKSP4RR0W                               \nIMDB Rating: 6.6/10\nVideo Codec: XViD                                       \nRelease Date: 3 July 2014\nAudio Codec: AC3                                       \nTheatre Date: 25 April 2014\nAudio Bitrate: 256 kbps                              \nRuntime: 1hr 49min 10sec\nSubtitles: n/a                                              \nLanguage: ENGLISH\nResolution: 720x304\n\n\nDETAILS:\n\nFormat: AVI\nFormat/Info: Audio Video Interleave\nFile size: 1.47 GiB\nDuration: 1h 49mn\nOverall bit rate: 1 924 Kbps\n\nVideo\nID: 0\nFormat: MPEG-4 Visual\nFormat profile: Advanced Simple@L5\nFormat settings, BVOP: 2\nFormat settings, QPel: Yes\nFormat settings, GMC: No warppoints\nFormat settings, Matrix: Default (H.263)\nMuxing mode: Packed bitstream\nCodec ID: XVID\nCodec ID/Hint: XviD\nDuration: 1h 49mn\nBit rate: 1 659 Kbps\nWidth: 720 pixels\nHeight: 304 pixels\nDisplay aspect ratio: 2.35:1\nFrame rate: 29.970 fps\nColor space: YUV\nChroma subsampling: 4:2:0\nBit depth: 8 bits\nCompression mode: Lossy\nBits/(Pixel*Frame): 0.253\nStream size: 1.27 GiB (86%)\nWriting library: XviD 65\n\nAudio\nID: 1\nFormat: AC-3\nFormat/Info: Audio Coding 3\nMode extension: CM (complete main)\nFormat settings, Endianness: Big\nCodec ID: 2000\nDuration: 1h 49mn\nBit rate mode: Constant\nBit rate: 256 Kbps\nChannel(s): 2 channels\nChannel positions: Front: L R\nSampling rate: 48.0 KHz\nBit depth: 16 bits\nCompression mode: Lossy\nStream size: 200 MiB (13%)\nAlignment: Aligned on interleaves\nInterleave, duration: 64 ms (1.92 video frames)\nInterleave, preload duration: 192 ms\n\n\nSOURCES:\n\nVIDEO: ............. G0D ...thanks\nAUDIO: ............. G0D ...thanks\n\n\n::More Information::\n\n &lt;a href=&quot;\nhttp://i.imgur.com/mPpwp50.png&quot; rel=&quot;nofollow&quot; target=&quot;_NEW&quot;&gt;\nhttp://i.imgur.com/mPpwp50.png&lt;/a&gt;\n\n\n::IMDB::\n\n &lt;a href=&quot;\nhttp://www.imdb.com/title/tt2203939/&quot; rel=&quot;nofollow&quot; target=&quot;_NEW&quot;&gt;\nhttp://www.imdb.com/title/tt2203939/&lt;/a&gt;\n\n\n::Greetz and Respect::\n\n\nALL CREDIT Goes to BL4CKP34RL for Encoding and ABG for Distribution.\n\n\n::Poster::\n\n &lt;a href=&quot;\nhttp://i.imgur.com/wSDfze6.jpg&quot; rel=&quot;nofollow&quot; target=&quot;_NEW&quot;&gt;\nhttp://i.imgur.com/wSDfze6.jpg&lt;/a&gt;\n\n\n::Screenshots::\n\n &lt;a href=&quot;\nhttp://i.imgur.com/ztFbFfE.jpg&quot; rel=&quot;nofollow&quot; target=&quot;_NEW&quot;&gt;\nhttp://i.imgur.com/ztFbFfE.jpg&lt;/a&gt;\n\n\nSEED AND ENJOY!","torrent":{"xt":"urn:btih:70128dd591b75eeeedddf76a7bf13530842667b3","amp;dn":"The+Other+Woman+2014+DVDSCR+XViD+AC3-BL4CKP34RL","amp;tr":["udp%3A%2F%2Ftracker.openbittorrent.com%3A80","udp%3A%2F%2Fopen.demonii.com%3A1337","udp%3A%2F%2Ftracker.coppersurfer.tk%3A6969","udp%3A%2F%2Fexodus.desync.com%3A6969"],"infoHash":"70128dd591b75eeeedddf76a7bf13530842667b3","infoHashBuffer":{"type":"Buffer","data":[112,18,141,213,145,183,94,238,237,221,247,106,123,241,53,48,132,38,103,179]},"announce":[],"urlList":[]}}